<?xml version="1.0" encoding="utf-8"?>
<!-- Generator: Adobe Illustrator 24.2.1, SVG Export Plug-In . SVG Version: 6.00 Build 0)  -->
<svg version="1.1" id="Layer_1" xmlns="http://www.w3.org/2000/svg" xmlns:xlink="http://www.w3.org/1999/xlink" x="0px" y="0px"
	 viewBox="0 0 512 512" style="enable-background:new 0 0 512 512;" xml:space="preserve">
<style type="text/css">
	.st0{fill:#DA291C;}
</style>
<g>
	<path class="st0" d="M247.5,228.8c0,5.1-0.5,12.7-1.7,20.8h1.7h5.7h69.5c5,19.6,22.8,34,43.9,34c25,0,45.4-20.3,45.4-45.4
		c0-21.1-14.5-38.9-34-43.9v-18.4c0-12.5-10.2-22.7-22.7-22.7l0,0h-98.2c-15.1-23.8-41.6-39.7-71.9-39.7c-47,0-85,38.1-85,85
		c0,19.1,6.3,36.8,17,51h7.4c-1.2-8.1-1.7-15.7-1.7-20.8c0-16.7,11.4-30.2,25.5-30.2s25.5,13.5,25.5,30.2c0,12-2.6,37.9-11.7,51.6
		c7.3,2.1,15,3.2,23,3.2s15.7-1.1,23-3.2c-9-13.7-11.7-39.6-11.7-51.6c0-16.7,11.4-30.2,25.5-30.2C236,198.4,247.5,212,247.5,228.8z
		 M389.2,238.1c0,12.5-10.2,22.7-22.7,22.7s-22.7-10.2-22.7-22.7s10.2-22.7,22.7-22.7S389.2,225.6,389.2,238.1z M355.2,175.8v18.4
		c-15.9,4.1-28.5,16.6-32.6,32.6h-57.3c3.1-8.9,4.9-18.4,4.9-28.3c0-7.9-1.1-15.5-3.1-22.7L355.2,175.8L355.2,175.8z"/>
	<polygon class="st0" points="57.5,340.2 68.9,340.2 68.9,396.9 85.9,396.9 85.9,340.2 97.2,340.2 97.2,323.2 57.5,323.2 	"/>
	<path class="st0" d="M124.2,330.1v-6.9h-15.7V397h17.1v-42.2c0-11,5-16.5,15.3-16.8v-16.4h-1.3
		C132.3,321.5,128.7,323.5,124.2,330.1z"/>
	<path class="st0" d="M453.1,321.5c-7.3,0-10.9,2-15.4,8.6v-6.9H422V397h17.1v-42.2c0-11,5-16.5,15.3-16.8v-16.4H453.1z"/>
	<path class="st0" d="M200.6,335.4c-5.9-7.8-13-11.1-23.2-11.1c-21,0-36.2,15.7-36.2,37.4c0,21.4,15,36.9,35.8,36.9
		c10,0,16.8-3.2,23.6-10.9v9.2h15.7V326h-15.7L200.6,335.4L200.6,335.4z M179.4,382.9c-12.4,0-21-8.4-21-20.9
		c0-12.9,8.6-22.1,20.8-22.1s20.9,9.1,20.9,22C200.1,373.8,192.4,382.9,179.4,382.9z"/>
	<path class="st0" d="M261.6,338.8c7.7,0,13.1,3.2,16.6,9.7h19.2c-5.5-16.3-19.6-25.3-35.8-25.3c-21,0-37.5,16.3-37.5,37.1
		c0,20.6,16.9,37.1,38,37.1c16.6,0,29.4-9.1,35.3-25h-19.2c-4.2,6.5-9.1,9.3-16.2,9.3c-11.8,0-20.7-9.2-20.7-21.6
		C241.4,347.8,249.8,338.8,261.6,338.8z"/>
	<path class="st0" d="M378.4,323.2c-20.7,0-37.6,16.8-37.6,37.1c0,20.5,16.9,37.1,37.7,37.1c20.7,0,37.9-16.6,37.9-36.6
		C416.4,339.8,399.8,323.2,378.4,323.2z M378.8,381.8c-11.5,0-20.7-9.6-20.7-21.8c0-11.6,9.4-21.2,20.5-21.2
		c11.4,0,20.7,9.7,20.7,21.5C399.2,372.2,390,381.8,378.8,381.8z"/>
	<polygon class="st0" points="341,323.2 301.3,323.2 301.3,340.2 312.8,340.2 312.8,396.9 329.8,396.9 329.8,340.2 341,340.2 	"/>
</g>
</svg>
